<svg xmlns="http://www.w3.org/2000/svg" viewBox="0 0 300 300" width="1024" height="1024" role="img" aria-label="Караван идёт">
<defs>
<linearGradient id="bandA" x1="0" y1="0" x2="0" y2="1"><stop offset="0" stop-color="#caa14a" stop-opacity="0"></stop><stop offset="0.42" stop-color="#caa14a" stop-opacity="0.55"></stop><stop offset="0.68" stop-color="#caa14a" stop-opacity="0.28"></stop><stop offset="1" stop-color="#caa14a" stop-opacity="0"></stop></linearGradient>
<radialGradient id="moonGlowA" cx="0.5" cy="0.5" r="0.5"><stop offset="0" stop-color="#f3e9cf" stop-opacity="0.45"></stop><stop offset="1" stop-color="#f3e9cf" stop-opacity="0"></stop></radialGradient>
<clipPath id="clipA"><circle cx="150" cy="150" r="143"></circle></clipPath>
</defs>
<circle cx="150" cy="150" r="146" fill="#cda14a"></circle>
<g clip-path="url(#clipA)">
<rect x="0" y="0" width="300" height="300" fill="#0e1d36"></rect>
<rect x="0" y="148" width="300" height="120" fill="url(#bandA)"></rect>
<rect x="60" y="40" width="180" height="120" fill="url(#moonGlowA)"></rect>
<g fill="#f3e9cf"><circle cx="62" cy="70" r="1.7"></circle><circle cx="96" cy="48" r="1.2"></circle><circle cx="232" cy="60" r="1.7"></circle><circle cx="210" cy="100" r="1.2"></circle><circle cx="250" cy="120" r="1.5"></circle><circle cx="44" cy="120" r="1.3"></circle><circle cx="262" cy="78" r="1.1"></circle><circle cx="80" cy="100" r="1.1"></circle><g transform="translate(225,44) rotate(45)"><rect x="-2" y="-2" width="4" height="4" rx="0.6"></rect></g><g transform="translate(70,52) rotate(45)"><rect x="-1.6" y="-1.6" width="3.2" height="3.2" rx="0.5"></rect></g></g>
<g transform="translate(110,52) scale(0.85)"><circle cx="46" cy="46" r="40" fill="#f3e9cf"></circle><circle cx="46" cy="46" r="9" fill="#0e1d36"></circle><circle cx="46" cy="20" r="5.6" fill="#0e1d36"></circle><circle cx="68.7" cy="33" r="5.6" fill="#0e1d36"></circle><circle cx="68.7" cy="59" r="5.6" fill="#0e1d36"></circle><circle cx="23.3" cy="59" r="5.6" fill="#0e1d36"></circle><circle cx="23.3" cy="33" r="5.6" fill="#0e1d36"></circle></g>
<path d="M-5,216 C70,205 235,205 305,216 L305,300 L-5,300 Z" fill="#0b1729"></path>
<g transform="translate(108,156) scale(0.56)"><circle cx="25" cy="12" r="6.6" fill="#070f1e"></circle><path d="M18,19 C18,15.5 32,15.5 32,19 L36.5,72 L13.5,72 Z" fill="#070f1e"></path><g transform="translate(31,25) rotate(34)"><rect x="-2.6" y="0" width="5.2" height="28" rx="2.6" fill="#070f1e"></rect></g><g transform="translate(20,69) rotate(11)"><rect x="-2.8" y="0" width="5.6" height="31" rx="2.8" fill="#070f1e"></rect></g><g transform="translate(30,69) rotate(-11)"><rect x="-2.8" y="0" width="5.6" height="31" rx="2.8" fill="#070f1e"></rect></g></g>
<line x1="131" y1="181" x2="152" y2="188" stroke="#cda14a" stroke-width="1.6" stroke-linecap="round"></line>
<g transform="translate(150,168) scale(0.44)"><path d="M 6,26 C 5,23 6,20 9,18 C 11,16 14,15 17,15 C 19,12 22,13 22,16 C 22,18 21,20 22,23 C 25,30 33,40 43,48 C 50,41 58,29 67,23 C 71,20 77,21 81,27 C 87,33 97,38 110,41 C 116,42 121,44 124,48 C 127,52 126,59 124,64 C 123,61 122,57 121,54 C 120,51 118,51 116,52 C 113,62 112,80 111,96 L 111,100 C 111,101 105,101 105,100 C 104,86 104,72 104,62 C 100,63 96,64 92,63 C 91,74 90,88 89,98 L 89,100 C 89,101 83,101 83,100 C 82,86 82,73 83,62 C 75,65 66,66 59,65 C 58,75 57,88 57,98 L 57,100 C 57,101 51,101 51,100 C 50,87 50,74 51,63 C 47,64 43,64 40,63 C 39,74 38,88 38,98 L 38,100 C 38,101 32,101 32,100 C 31,86 31,73 33,61 C 35,56 37,53 38,49 C 32,45 22,44 16,41 C 12,39 8,32 7,28 C 6.5,27 6,26 6,26 Z" fill="#070f1e"></path></g>
<g transform="translate(214,172) scale(0.4)"><path d="M 6,26 C 5,23 6,20 9,18 C 11,16 14,15 17,15 C 19,12 22,13 22,16 C 22,18 21,20 22,23 C 25,30 33,40 43,48 C 50,41 58,29 67,23 C 71,20 77,21 81,27 C 87,33 97,38 110,41 C 116,42 121,44 124,48 C 127,52 126,59 124,64 C 123,61 122,57 121,54 C 120,51 118,51 116,52 C 113,62 112,80 111,96 L 111,100 C 111,101 105,101 105,100 C 104,86 104,72 104,62 C 100,63 96,64 92,63 C 91,74 90,88 89,98 L 89,100 C 89,101 83,101 83,100 C 82,86 82,73 83,62 C 75,65 66,66 59,65 C 58,75 57,88 57,98 L 57,100 C 57,101 51,101 51,100 C 50,87 50,74 51,63 C 47,64 43,64 40,63 C 39,74 38,88 38,98 L 38,100 C 38,101 32,101 32,100 C 31,86 31,73 33,61 C 35,56 37,53 38,49 C 32,45 22,44 16,41 C 12,39 8,32 7,28 C 6.5,27 6,26 6,26 Z" fill="#070f1e"></path></g>
</g>
<circle cx="150" cy="150" r="146" fill="none" stroke="#cda14a" stroke-width="3"></circle>
<circle cx="150" cy="150" r="137" fill="none" stroke="#cda14a" stroke-width="1" stroke-opacity="0.5"></circle>
<g fill="#cda14a"><rect x="146" y="2.5" width="8" height="6" rx="2"></rect><rect x="146" y="291.5" width="8" height="6" rx="2"></rect><g transform="rotate(40 150 150)"><rect x="146" y="2.5" width="8" height="6" rx="2"></rect><rect x="146" y="291.5" width="8" height="6" rx="2"></rect></g><g transform="rotate(80 150 150)"><rect x="146" y="2.5" width="8" height="6" rx="2"></rect><rect x="146" y="291.5" width="8" height="6" rx="2"></rect></g><g transform="rotate(120 150 150)"><rect x="146" y="2.5" width="8" height="6" rx="2"></rect><rect x="146" y="291.5" width="8" height="6" rx="2"></rect></g><g transform="rotate(160 150 150)"><rect x="146" y="2.5" width="8" height="6" rx="2"></rect><rect x="146" y="291.5" width="8" height="6" rx="2"></rect></g></g>
</svg>