<svg xmlns="http://www.w3.org/2000/svg" viewBox="0 0 360 200" width="1440" height="800" role="img" aria-label="Караван идёт">
<defs><linearGradient id="beamB" x1="1" y1="0" x2="0" y2="0"><stop offset="0" stop-color="#e1bd6a" stop-opacity="0.62"></stop><stop offset="0.6" stop-color="#e1bd6a" stop-opacity="0.22"></stop><stop offset="1" stop-color="#e1bd6a" stop-opacity="0"></stop></linearGradient></defs>
<rect x="0" y="0" width="360" height="200" rx="14" fill="#0e1d36"></rect>
<g fill="#f3e9cf"><circle cx="44" cy="34" r="1.5"></circle><circle cx="120" cy="26" r="1.1"></circle><circle cx="180" cy="40" r="1.3"></circle><circle cx="250" cy="30" r="1.1"></circle><circle cx="300" cy="52" r="1.4"></circle><circle cx="88" cy="56" r="1.1"></circle><g transform="translate(150,22) rotate(45)"><rect x="-1.7" y="-1.7" width="3.4" height="3.4" rx="0.5"></rect></g></g>
<path d="M322,114 L322,124 L40,158 L40,68 Z" fill="url(#beamB)"></path>
<line x1="20" y1="159" x2="340" y2="159" stroke="#cda14a" stroke-width="1.4" stroke-opacity="0.45"></line>
<g transform="translate(42,52) scale(0.74)"><circle cx="46" cy="46" r="40" fill="#f3e9cf"></circle><circle cx="46" cy="46" r="9" fill="#0e1d36"></circle><circle cx="46" cy="20" r="5.6" fill="#0e1d36"></circle><circle cx="68.7" cy="33" r="5.6" fill="#0e1d36"></circle><circle cx="68.7" cy="59" r="5.6" fill="#0e1d36"></circle><circle cx="23.3" cy="59" r="5.6" fill="#0e1d36"></circle><circle cx="23.3" cy="33" r="5.6" fill="#0e1d36"></circle></g>
<g transform="translate(96,116) scale(0.42)"><circle cx="25" cy="12" r="6.6" fill="#070f1e"></circle><path d="M18,19 C18,15.5 32,15.5 32,19 L36.5,72 L13.5,72 Z" fill="#070f1e"></path><g transform="translate(31,25) rotate(34)"><rect x="-2.6" y="0" width="5.2" height="28" rx="2.6" fill="#070f1e"></rect></g><g transform="translate(20,69) rotate(11)"><rect x="-2.8" y="0" width="5.6" height="31" rx="2.8" fill="#070f1e"></rect></g><g transform="translate(30,69) rotate(-11)"><rect x="-2.8" y="0" width="5.6" height="31" rx="2.8" fill="#070f1e"></rect></g></g>
<line x1="113" y1="135" x2="129" y2="141" stroke="#cda14a" stroke-width="1.4" stroke-linecap="round"></line>
<g transform="translate(128,124) scale(0.34)"><path d="M 6,26 C 5,23 6,20 9,18 C 11,16 14,15 17,15 C 19,12 22,13 22,16 C 22,18 21,20 22,23 C 25,30 33,40 43,48 C 50,41 58,29 67,23 C 71,20 77,21 81,27 C 87,33 97,38 110,41 C 116,42 121,44 124,48 C 127,52 126,59 124,64 C 123,61 122,57 121,54 C 120,51 118,51 116,52 C 113,62 112,80 111,96 L 111,100 C 111,101 105,101 105,100 C 104,86 104,72 104,62 C 100,63 96,64 92,63 C 91,74 90,88 89,98 L 89,100 C 89,101 83,101 83,100 C 82,86 82,73 83,62 C 75,65 66,66 59,65 C 58,75 57,88 57,98 L 57,100 C 57,101 51,101 51,100 C 50,87 50,74 51,63 C 47,64 43,64 40,63 C 39,74 38,88 38,98 L 38,100 C 38,101 32,101 32,100 C 31,86 31,73 33,61 C 35,56 37,53 38,49 C 32,45 22,44 16,41 C 12,39 8,32 7,28 C 6.5,27 6,26 6,26 Z" fill="#070f1e"></path></g>
<g transform="translate(178,126) scale(0.31)"><path d="M 6,26 C 5,23 6,20 9,18 C 11,16 14,15 17,15 C 19,12 22,13 22,16 C 22,18 21,20 22,23 C 25,30 33,40 43,48 C 50,41 58,29 67,23 C 71,20 77,21 81,27 C 87,33 97,38 110,41 C 116,42 121,44 124,48 C 127,52 126,59 124,64 C 123,61 122,57 121,54 C 120,51 118,51 116,52 C 113,62 112,80 111,96 L 111,100 C 111,101 105,101 105,100 C 104,86 104,72 104,62 C 100,63 96,64 92,63 C 91,74 90,88 89,98 L 89,100 C 89,101 83,101 83,100 C 82,86 82,73 83,62 C 75,65 66,66 59,65 C 58,75 57,88 57,98 L 57,100 C 57,101 51,101 51,100 C 50,87 50,74 51,63 C 47,64 43,64 40,63 C 39,74 38,88 38,98 L 38,100 C 38,101 32,101 32,100 C 31,86 31,73 33,61 C 35,56 37,53 38,49 C 32,45 22,44 16,41 C 12,39 8,32 7,28 C 6.5,27 6,26 6,26 Z" fill="#070f1e"></path></g>
<g transform="translate(248,68) scale(0.74)"><g transform="translate(40,82) rotate(15)"><rect x="-2.6" y="0" width="5.2" height="46" rx="2.6" fill="#cda14a"></rect></g><g transform="translate(60,84)"><rect x="-2.6" y="0" width="5.2" height="44" rx="2.6" fill="#cda14a"></rect></g><g transform="translate(80,82) rotate(-15)"><rect x="-2.6" y="0" width="5.2" height="46" rx="2.6" fill="#cda14a"></rect></g><rect x="22" y="46" width="74" height="38" rx="9" fill="#cda14a"></rect><circle cx="44" cy="32" r="17" fill="#cda14a"></circle><circle cx="44" cy="32" r="4.6" fill="#0e1d36"></circle><circle cx="44" cy="22" r="2.3" fill="#0e1d36"></circle><circle cx="44" cy="42" r="2.3" fill="#0e1d36"></circle><circle cx="54" cy="32" r="2.3" fill="#0e1d36"></circle><circle cx="34" cy="32" r="2.3" fill="#0e1d36"></circle><circle cx="74" cy="32" r="17" fill="#cda14a"></circle><circle cx="74" cy="32" r="4.6" fill="#0e1d36"></circle><circle cx="74" cy="22" r="2.3" fill="#0e1d36"></circle><circle cx="74" cy="42" r="2.3" fill="#0e1d36"></circle><circle cx="84" cy="32" r="2.3" fill="#0e1d36"></circle><circle cx="64" cy="32" r="2.3" fill="#0e1d36"></circle><rect x="94" y="56" width="16" height="18" rx="4" fill="#cda14a"></rect><path d="M110,52 L124,46 L124,84 L110,78 Z" fill="#cda14a"></path></g>
</svg>